<svg width="264" height="72" viewBox="0 0 264 72" fill="none" xmlns="http://www.w3.org/2000/svg">
<path d="M23.8281 70.2148H3.80859C3.51562 70.2148 3.14128 70.166 2.68555 70.0684C2.26237 69.9382 1.83919 69.7754 1.41602 69.5801C1.02539 69.3848 0.683594 69.1569 0.390625 68.8965C0.130208 68.6035 0 68.278 0 67.9199C0 67.5293 0.0976562 67.2038 0.292969 66.9434C0.520833 66.6829 0.797526 66.4551 1.12305 66.2598C1.44857 66.0645 1.79036 65.918 2.14844 65.8203C2.50651 65.6901 2.83203 65.5762 3.125 65.4785C3.22266 65.446 3.43424 65.3971 3.75977 65.332C4.08529 65.2669 4.42708 65.2018 4.78516 65.1367C5.17578 65.0391 5.53385 64.9577 5.85938 64.8926C6.1849 64.7949 6.39648 64.7461 6.49414 64.7461C6.88477 64.6484 7.29167 64.4694 7.71484 64.209C8.13802 63.916 8.52865 63.5905 8.88672 63.2324C9.24479 62.8743 9.53776 62.4837 9.76562 62.0605C10.026 61.6048 10.1725 61.1654 10.2051 60.7422V60.0098V57.959C10.2051 57.8613 10.2214 57.666 10.2539 57.373C10.2865 57.0801 10.319 56.7708 10.3516 56.4453C10.4167 56.1198 10.4655 55.8105 10.498 55.5176C10.5632 55.2246 10.612 55.0293 10.6445 54.9316V50.8789L11.2305 49.5117V34.668C11.2305 34.5703 11.2467 34.3262 11.2793 33.9355C11.3118 33.5124 11.3444 33.0729 11.377 32.6172C11.4421 32.1289 11.4909 31.6895 11.5234 31.2988C11.556 30.8757 11.5723 30.6152 11.5723 30.5176V25.8789C11.5723 23.3724 11.5234 20.9147 11.4258 18.5059C11.3281 16.0645 11.0677 13.623 10.6445 11.1816C10.4167 10.2702 10.14 9.47266 9.81445 8.78906C9.48893 8.10547 8.95182 7.43815 8.20312 6.78711C7.8125 6.49414 7.35677 6.34766 6.83594 6.34766C6.47786 6.34766 6.16862 6.36393 5.9082 6.39648C5.68034 6.42904 5.41992 6.44531 5.12695 6.44531C4.08529 6.34766 3.10872 5.94076 2.19727 5.22461C1.28581 4.50846 0.585938 3.67839 0.0976562 2.73438V2.49023C0.0976562 2.26237 0.179036 2.03451 0.341797 1.80664C0.504557 1.57878 0.69987 1.36719 0.927734 1.17188C1.18815 0.976562 1.44857 0.813802 1.70898 0.683594C1.9694 0.520833 2.18099 0.406901 2.34375 0.341797C2.50651 0.309245 2.73438 0.276693 3.02734 0.244141C3.32031 0.179036 3.61328 0.130208 3.90625 0.0976562C4.19922 0.0651042 4.45964 0.0488281 4.6875 0.0488281C4.91536 0.016276 5.06185 0 5.12695 0C5.15951 0 5.27344 0.0325521 5.46875 0.0976562C5.69661 0.16276 5.92448 0.244141 6.15234 0.341797C6.38021 0.406901 6.5918 0.488281 6.78711 0.585938C6.98242 0.683594 7.11263 0.748698 7.17773 0.78125C7.92643 0.846354 8.78906 0.911458 9.76562 0.976562C10.7422 1.00911 11.6536 1.02539 12.5 1.02539C13.2161 1.02539 13.8346 0.911458 14.3555 0.683594C14.8763 0.455729 15.4622 0.341797 16.1133 0.341797H17.041C17.1061 0.406901 17.3177 0.504557 17.6758 0.634766C18.0664 0.732422 18.278 0.78125 18.3105 0.78125H24.7559C25.2441 1.07422 25.5371 1.5625 25.6348 2.24609C25.765 2.89714 25.8301 3.45052 25.8301 3.90625V4.39453C25.7324 4.49219 25.5859 4.63867 25.3906 4.83398C25.2279 5.0293 25.0326 5.24089 24.8047 5.46875C24.6094 5.69661 24.4141 5.9082 24.2188 6.10352C24.056 6.29883 23.9258 6.41276 23.8281 6.44531C23.763 6.51042 23.6328 6.5918 23.4375 6.68945C23.2747 6.75456 23.1445 6.78711 23.0469 6.78711C22.2982 7.24284 21.696 7.69857 21.2402 8.1543C20.7845 8.61003 20.4427 9.11458 20.2148 9.66797C19.987 10.1888 19.8405 10.7585 19.7754 11.377C19.7103 11.9954 19.6777 12.6628 19.6777 13.3789V15.8203V19.043C19.7428 19.5964 19.8242 20.1335 19.9219 20.6543C20.0521 21.1426 20.1823 21.6309 20.3125 22.1191C20.4427 22.6074 20.5404 23.112 20.6055 23.6328C20.7031 24.1536 20.752 24.7233 20.752 25.3418V25.4395C20.752 25.5046 20.7031 25.6836 20.6055 25.9766C20.5078 26.2695 20.459 26.4648 20.459 26.5625C20.4264 26.8555 20.4102 27.1322 20.4102 27.3926C20.3776 27.653 20.3613 27.9134 20.3613 28.1738C20.3613 28.4017 20.3613 28.597 20.3613 28.7598V29.834C20.3613 30.4199 20.4264 30.9896 20.5566 31.543C20.7194 32.0638 21.0938 32.5358 21.6797 32.959H22.0215C22.3796 32.959 22.7214 32.8776 23.0469 32.7148C23.3724 32.5521 23.6816 32.373 23.9746 32.1777C24.2676 31.9824 24.5605 31.8034 24.8535 31.6406C25.179 31.4453 25.5046 31.3151 25.8301 31.25C25.9277 31.1198 26.123 30.9082 26.416 30.6152C26.709 30.3223 27.0182 30.0293 27.3438 29.7363C27.6693 29.4108 27.9785 29.1016 28.2715 28.8086C28.5645 28.5156 28.776 28.3203 28.9062 28.2227C28.9062 28.1576 28.9876 28.0599 29.1504 27.9297C29.3132 27.7669 29.4922 27.6204 29.6875 27.4902C29.8828 27.3275 30.0618 27.181 30.2246 27.0508C30.4199 26.9206 30.5339 26.8392 30.5664 26.8066C30.8919 26.4811 31.1686 26.2044 31.3965 25.9766C31.6569 25.7161 31.8848 25.472 32.0801 25.2441C32.3079 24.9837 32.5358 24.7233 32.7637 24.4629C32.9915 24.1699 33.2682 23.8281 33.5938 23.4375C33.5938 23.3724 33.6426 23.3073 33.7402 23.2422L33.9355 23.1445C34.9772 22.2982 35.8724 21.4193 36.6211 20.5078C37.4023 19.5964 38.1999 18.6523 39.0137 17.6758C39.0788 17.6107 39.1927 17.4805 39.3555 17.2852C39.5508 17.0898 39.7461 16.8783 39.9414 16.6504C40.1367 16.4225 40.2995 16.2109 40.4297 16.0156C40.5924 15.8203 40.6901 15.6901 40.7227 15.625C40.7552 15.5924 40.8203 15.4297 40.918 15.1367C41.0156 14.8112 41.0645 14.6159 41.0645 14.5508C41.1621 14.4531 41.3086 14.2578 41.5039 13.9648C41.7318 13.6719 41.9759 13.3789 42.2363 13.0859C42.4967 12.7604 42.7409 12.4512 42.9688 12.1582C43.2292 11.8652 43.4082 11.6536 43.5059 11.5234V10.3027C43.5059 9.55404 43.4082 8.90299 43.2129 8.34961C43.0176 7.76367 42.5456 7.24284 41.7969 6.78711C41.7643 6.78711 41.6667 6.77083 41.5039 6.73828C41.3737 6.70573 41.2272 6.67318 41.0645 6.64062C40.9342 6.60807 40.7878 6.57552 40.625 6.54297C40.4948 6.51042 40.4134 6.47786 40.3809 6.44531C40.3158 6.44531 40.1042 6.34766 39.7461 6.15234C39.388 5.95703 39.1439 5.85938 39.0137 5.85938C38.9811 5.82682 38.8672 5.79427 38.6719 5.76172C38.4766 5.69661 38.265 5.64779 38.0371 5.61523C37.8092 5.58268 37.5977 5.56641 37.4023 5.56641C37.207 5.53385 37.0768 5.51758 37.0117 5.51758C36.4583 5.35482 36.1328 5.0944 36.0352 4.73633C35.9375 4.3457 35.8073 3.90625 35.6445 3.41797L35.4492 3.125C35.3516 2.99479 35.3027 2.86458 35.3027 2.73438V2.53906C35.3027 2.11589 35.4655 1.74154 35.791 1.41602C36.1491 1.09049 36.5723 0.830078 37.0605 0.634766C37.5488 0.406901 38.0371 0.244141 38.5254 0.146484C39.0462 0.0488281 39.4694 0 39.7949 0H40.1367C40.4297 0 40.7064 0.0488281 40.9668 0.146484C41.2598 0.211589 41.5365 0.423177 41.7969 0.78125C41.9922 0.78125 42.3503 0.797526 42.8711 0.830078C43.4245 0.830078 44.0104 0.846354 44.6289 0.878906C45.2474 0.911458 45.8171 0.94401 46.3379 0.976562C46.8913 0.976562 47.2656 0.992839 47.4609 1.02539C47.526 1.02539 47.7051 1.09049 47.998 1.2207C48.291 1.31836 48.4863 1.36719 48.584 1.36719H49.9023C51.1719 1.36719 52.4414 1.26953 53.7109 1.07422C54.9805 0.878906 56.2826 0.78125 57.6172 0.78125C58.2682 0.78125 58.903 0.927734 59.5215 1.2207C60.1725 1.48112 60.498 1.98568 60.498 2.73438C60.498 3.25521 60.2539 3.82487 59.7656 4.44336C59.3099 5.06185 58.7402 5.66406 58.0566 6.25C57.4056 6.83594 56.722 7.38932 56.0059 7.91016C55.3223 8.43099 54.7526 8.87044 54.2969 9.22852C54.2643 9.22852 54.1667 9.27734 54.0039 9.375C53.8411 9.4401 53.7109 9.47266 53.6133 9.47266C53.4831 9.60286 53.304 9.68424 53.0762 9.7168C52.946 9.74935 52.7995 9.7819 52.6367 9.81445C52.5716 9.84701 52.474 9.92839 52.3438 10.0586C52.2135 10.1888 52.0671 10.3353 51.9043 10.498C51.7741 10.6608 51.6439 10.8073 51.5137 10.9375C51.3835 11.0677 51.3021 11.1491 51.2695 11.1816C51.2044 11.2467 50.9766 11.377 50.5859 11.5723C50.1953 11.7676 49.9674 11.8815 49.9023 11.9141C49.8372 11.9792 49.7721 12.028 49.707 12.0605C49.6094 12.1582 49.5605 12.2233 49.5605 12.2559C49.5605 12.2884 49.5117 12.3698 49.4141 12.5C49.3164 12.6302 49.2025 12.7767 49.0723 12.9395C48.9421 13.1022 48.8281 13.2487 48.7305 13.3789C48.6328 13.5091 48.584 13.5905 48.584 13.623C48.4863 13.7207 48.291 13.916 47.998 14.209C47.7051 14.502 47.3796 14.8275 47.0215 15.1855C46.6634 15.5111 46.3379 15.8203 46.0449 16.1133C45.752 16.4062 45.5566 16.5853 45.459 16.6504C45.3939 16.6504 45.2799 16.7969 45.1172 17.0898C44.987 17.3828 44.8893 17.5781 44.8242 17.6758C44.0755 18.5221 43.3105 19.2383 42.5293 19.8242C41.7806 20.4102 40.9831 21.0449 40.1367 21.7285C39.5833 22.1517 39.1113 22.6562 38.7207 23.2422C38.3626 23.7956 37.9069 24.3327 37.3535 24.8535C37.2884 24.9186 37.0605 25.0814 36.6699 25.3418C36.2793 25.5697 36.0514 25.7161 35.9863 25.7812C35.8887 25.8789 35.6934 26.0579 35.4004 26.3184C35.14 26.5788 34.8633 26.8555 34.5703 27.1484C34.3099 27.4414 34.0495 27.7181 33.7891 27.9785C33.5612 28.2064 33.4147 28.3691 33.3496 28.4668C33.1543 29.0202 32.9753 29.5898 32.8125 30.1758C32.6823 30.7617 32.6172 31.3314 32.6172 31.8848C32.6172 32.6009 32.6986 33.1543 32.8613 33.5449C33.0241 33.903 33.2682 34.3913 33.5938 35.0098C33.6589 35.1074 33.8053 35.3516 34.0332 35.7422C34.2936 36.1328 34.554 36.556 34.8145 37.0117C35.0749 37.4674 35.319 37.8906 35.5469 38.2812C35.7747 38.6393 35.9212 38.8672 35.9863 38.9648C36.4095 39.6159 36.9629 40.153 37.6465 40.5762C38.3301 40.9993 38.8997 41.4714 39.3555 41.9922C40.2344 43.0339 41.0807 44.0755 41.8945 45.1172C42.7409 46.1263 43.6198 47.1354 44.5312 48.1445C44.8893 48.6328 45.2799 49.0723 45.7031 49.4629C46.1263 49.8535 46.5983 50.2441 47.1191 50.6348C47.5098 50.8626 47.8353 51.1556 48.0957 51.5137C48.3561 51.8717 48.6003 52.2461 48.8281 52.6367C49.056 53.0273 49.2839 53.4342 49.5117 53.8574C49.7396 54.248 49.9837 54.6061 50.2441 54.9316L51.2695 55.957C52.3112 57.194 53.3854 58.3822 54.4922 59.5215C55.599 60.6608 56.8848 61.6374 58.3496 62.4512C58.4798 62.5163 58.7891 62.679 59.2773 62.9395C59.7982 63.1999 60.3353 63.4766 60.8887 63.7695C61.4746 64.0625 62.0117 64.3392 62.5 64.5996C63.0208 64.86 63.3301 65.0391 63.4277 65.1367C63.4603 65.1693 63.5742 65.2669 63.7695 65.4297C63.9648 65.5924 64.1764 65.7878 64.4043 66.0156C64.6322 66.2109 64.8438 66.4225 65.0391 66.6504C65.2669 66.8783 65.4297 67.0573 65.5273 67.1875C65.625 67.3503 65.7064 67.513 65.7715 67.6758C65.8366 67.806 65.8691 67.9688 65.8691 68.1641V68.5059C65.4134 69.1243 64.8112 69.5312 64.0625 69.7266C63.3138 69.8893 62.5326 69.9707 61.7188 69.9707C61.2305 69.9707 60.7585 69.9544 60.3027 69.9219C59.847 69.8893 59.3913 69.873 58.9355 69.873H58.3496C58.3496 69.873 58.2845 69.8893 58.1543 69.9219C58.0241 69.9544 57.8776 70.0033 57.7148 70.0684C57.5846 70.1009 57.4382 70.1335 57.2754 70.166C57.1452 70.1986 57.0638 70.2148 57.0312 70.2148H56.8359C55.957 70.2148 55.0944 70.1497 54.248 70.0195C53.4017 69.8568 52.5553 69.7754 51.709 69.7754H50.9277C50.5371 69.7754 50.1302 69.8079 49.707 69.873C49.3164 69.9382 48.9421 70.0521 48.584 70.2148H41.7969C41.4714 70.0195 41.1296 69.8568 40.7715 69.7266C40.4134 69.5638 40.0716 69.3848 39.7461 69.1895C39.4531 68.9941 39.1927 68.75 38.9648 68.457C38.7695 68.1641 38.6719 67.7897 38.6719 67.334C38.6719 66.6829 38.8346 66.2109 39.1602 65.918C39.4857 65.625 39.8763 65.4134 40.332 65.2832C40.8203 65.153 41.3411 65.0716 41.8945 65.0391C42.4805 64.974 43.0013 64.8438 43.457 64.6484C43.9453 64.4531 44.3522 64.1439 44.6777 63.7207C45.0033 63.2975 45.166 62.6465 45.166 61.7676V61.3281C45.0684 61.2956 44.9382 61.2142 44.7754 61.084C44.6126 60.9212 44.4336 60.7585 44.2383 60.5957C44.0755 60.4004 43.9128 60.2214 43.75 60.0586C43.6198 59.8958 43.5384 59.7656 43.5059 59.668C43.4082 59.668 43.3268 59.5703 43.2617 59.375L43.1641 59.082C43.0664 58.9844 42.8711 58.8053 42.5781 58.5449C42.3177 58.2845 42.0247 58.0078 41.6992 57.7148C41.4062 57.3893 41.1296 57.0964 40.8691 56.8359C40.6087 56.543 40.446 56.3639 40.3809 56.2988C40.3158 56.2012 40.1204 55.9408 39.7949 55.5176C39.4694 55.0618 39.1113 54.5898 38.7207 54.1016C38.3301 53.5807 37.972 53.1087 37.6465 52.6855C37.321 52.2624 37.1094 52.002 37.0117 51.9043C36.9141 51.7415 36.6862 51.4974 36.3281 51.1719C36.0026 50.8464 35.7747 50.6673 35.6445 50.6348C35.5794 50.5371 35.3516 50.4069 34.9609 50.2441C34.5703 50.0488 34.3424 49.9186 34.2773 49.8535C34.2122 49.7884 34.0983 49.6257 33.9355 49.3652C33.8053 49.0723 33.6914 48.9258 33.5938 48.9258C32.9427 48.1771 32.3405 47.5098 31.7871 46.9238C31.2663 46.3053 30.7454 45.5892 30.2246 44.7754C30.1595 44.7754 30.1107 44.7266 30.0781 44.6289L29.9805 44.4336C29.9154 44.401 29.7201 44.2871 29.3945 44.0918C29.1016 43.8965 28.9388 43.7663 28.9062 43.7012C28.8086 43.6686 28.6296 43.5384 28.3691 43.3105C28.1087 43.0827 27.8158 42.8385 27.4902 42.5781C27.1973 42.2852 26.9206 42.041 26.6602 41.8457C26.3997 41.6178 26.237 41.4714 26.1719 41.4062C26.0091 41.2435 25.7487 41.0319 25.3906 40.7715C25.0326 40.4785 24.821 40.332 24.7559 40.332H21.3867C21.2565 40.332 21.0938 40.4948 20.8984 40.8203C20.7357 41.1458 20.5566 41.5365 20.3613 41.9922C20.1986 42.4154 20.0521 42.8385 19.9219 43.2617C19.7917 43.6523 19.7103 43.929 19.6777 44.0918V47.8516V51.5625C19.6777 51.6602 19.694 51.888 19.7266 52.2461C19.7591 52.5716 19.7917 52.9297 19.8242 53.3203C19.8893 53.7109 19.9382 54.1016 19.9707 54.4922C20.0033 54.8828 20.0195 55.1758 20.0195 55.3711C20.0521 55.3711 20.0846 55.4525 20.1172 55.6152C20.1823 55.778 20.2311 55.957 20.2637 56.1523C20.3288 56.3151 20.3776 56.4941 20.4102 56.6895C20.4427 56.8522 20.459 56.9661 20.459 57.0312V59.4727V60.4004C20.459 60.9212 20.6217 61.3444 20.9473 61.6699C21.3053 61.9954 21.696 62.3372 22.1191 62.6953C22.2493 62.8581 22.4284 63.0534 22.6562 63.2812C22.8841 63.4766 23.1283 63.6882 23.3887 63.916C23.6491 64.1113 23.877 64.2904 24.0723 64.4531C24.3001 64.6159 24.4466 64.7135 24.5117 64.7461C24.7721 64.9414 25.1465 65.1367 25.6348 65.332C26.123 65.4948 26.6113 65.7064 27.0996 65.9668C27.5879 66.1947 28.0111 66.4714 28.3691 66.7969C28.7272 67.1224 28.9062 67.5293 28.9062 68.0176V68.1641C28.5807 68.9779 28.1738 69.5801 27.6855 69.9707C27.2298 70.3613 26.5299 70.5566 25.5859 70.5566C25.293 70.5566 25.0163 70.5404 24.7559 70.5078C24.4954 70.4753 24.1862 70.3776 23.8281 70.2148ZM95.3125 68.457C95.3125 68.4245 95.3125 68.3594 95.3125 68.2617C95.3125 68.1641 95.3288 68.0664 95.3613 67.9688L95.459 67.5781C95.459 67.513 95.5729 67.4154 95.8008 67.2852C96.0286 67.1224 96.2891 66.9596 96.582 66.7969C96.875 66.6341 97.1517 66.4714 97.4121 66.3086C97.7051 66.1458 97.9004 66.0156 97.998 65.918C98.0957 65.8203 98.2259 65.625 98.3887 65.332C98.584 65.0391 98.763 64.7461 98.9258 64.4531C99.1211 64.1276 99.2839 63.8184 99.4141 63.5254C99.5443 63.2324 99.6419 63.0371 99.707 62.9395C99.707 62.9069 99.707 62.793 99.707 62.5977C99.7396 62.3698 99.7559 62.1257 99.7559 61.8652C99.7884 61.6048 99.8047 61.377 99.8047 61.1816C99.8372 60.9538 99.8535 60.8073 99.8535 60.7422C100.179 59.3099 100.374 57.8451 100.439 56.3477C100.505 54.8503 100.765 53.3854 101.221 51.9531V47.8516V44.5312C101.221 42.8711 101.123 41.2598 100.928 39.6973C100.732 38.1022 100.26 36.5397 99.5117 35.0098C99.349 34.9121 99.0723 34.7819 98.6816 34.6191C98.3236 34.4564 97.9167 34.2773 97.4609 34.082C97.0378 33.8867 96.6309 33.724 96.2402 33.5938C95.8496 33.431 95.5892 33.3333 95.459 33.3008H93.1152C93.0501 33.3008 92.9199 33.252 92.7246 33.1543C92.5618 33.0241 92.4316 32.959 92.334 32.959H92.0898C91.862 32.959 91.6992 32.9753 91.6016 33.0078C91.5365 33.0404 91.3574 33.138 91.0645 33.3008C89.7949 33.9844 88.8346 34.6191 88.1836 35.2051C87.5326 35.791 87.0605 36.4258 86.7676 37.1094C86.4746 37.793 86.263 38.5905 86.1328 39.502C86.0026 40.3809 85.8236 41.4714 85.5957 42.7734C85.5957 42.806 85.5469 43.0339 85.4492 43.457C85.3841 43.8477 85.3516 44.0592 85.3516 44.0918V46.4844C85.3516 46.582 85.319 46.7773 85.2539 47.0703C85.1888 47.3307 85.1074 47.6074 85.0098 47.9004C84.9121 48.1934 84.8307 48.4701 84.7656 48.7305C84.7005 48.9909 84.668 49.1374 84.668 49.1699C84.5703 49.6582 84.4889 50.0814 84.4238 50.4395C84.3587 50.765 84.3099 51.0742 84.2773 51.3672C84.2448 51.6602 84.2285 51.9857 84.2285 52.3438C84.2285 52.6693 84.2285 53.0762 84.2285 53.5645C84.2285 54.9642 84.3913 56.3802 84.7168 57.8125C85.0749 59.2122 85.3678 60.6445 85.5957 62.1094V63.1348C85.7259 63.7858 86.0514 64.2578 86.5723 64.5508C87.1257 64.8438 87.679 65.1042 88.2324 65.332C88.8184 65.5599 89.3392 65.8366 89.7949 66.1621C90.2507 66.4551 90.4785 66.9108 90.4785 67.5293C90.4785 67.985 90.3809 68.3594 90.1855 68.6523C90.0228 68.9453 89.7624 69.2708 89.4043 69.6289C89.3392 69.694 89.2415 69.7591 89.1113 69.8242C88.9811 69.8568 88.8672 69.9056 88.7695 69.9707C88.6393 70.0684 88.5091 70.1497 88.3789 70.2148H78.5645C78.2064 70.0521 77.9134 69.9544 77.6855 69.9219C77.4577 69.8893 77.1973 69.873 76.9043 69.873C75.8626 69.873 74.8372 70.0033 73.8281 70.2637C72.8516 70.5241 71.8424 70.6543 70.8008 70.6543C70.1497 70.6543 69.7266 70.4427 69.5312 70.0195C69.3685 69.5964 69.2871 69.1243 69.2871 68.6035C69.2871 68.5384 69.2871 68.457 69.2871 68.3594C69.2871 68.2617 69.3034 68.1478 69.3359 68.0176C69.3359 67.8874 69.3522 67.7409 69.3848 67.5781C69.3848 67.5456 69.4661 67.3503 69.6289 66.9922C69.7917 66.6341 69.9056 66.39 69.9707 66.2598C70.1335 66.0319 70.2637 65.918 70.3613 65.918C70.3939 65.8854 70.5078 65.8366 70.7031 65.7715C70.931 65.7064 71.1589 65.625 71.3867 65.5273C71.6146 65.4297 71.8262 65.3483 72.0215 65.2832C72.2168 65.2181 72.347 65.1693 72.4121 65.1367C73.0306 64.7786 73.5189 64.3229 73.877 63.7695C74.2676 63.1836 74.5768 62.5488 74.8047 61.8652C75.0326 61.1816 75.179 60.4818 75.2441 59.7656C75.3418 59.0169 75.4069 58.3008 75.4395 57.6172V52.4902V47.2168C75.3743 47.0866 75.3092 46.8587 75.2441 46.5332C75.2116 46.1751 75.1953 45.931 75.1953 45.8008V45.6543C75.1953 45.2311 75.2604 44.8242 75.3906 44.4336C75.5534 44.043 75.7161 43.6523 75.8789 43.2617C76.0417 42.8711 76.1882 42.4642 76.3184 42.041C76.4811 41.6178 76.5625 41.1784 76.5625 40.7227C76.5625 40.1693 76.4974 39.5833 76.3672 38.9648C76.2695 38.3138 76.0905 37.6953 75.8301 37.1094C75.5697 36.5234 75.2441 35.9863 74.8535 35.498C74.4629 34.9772 74.0072 34.5866 73.4863 34.3262C73.4212 34.2611 73.2422 34.196 72.9492 34.1309C72.6562 34.0332 72.4772 33.9844 72.4121 33.9844C71.9564 33.7565 71.5983 33.5286 71.3379 33.3008C71.0775 33.0729 70.752 32.7311 70.3613 32.2754C70.3613 31.8197 70.4915 31.429 70.752 31.1035C71.0449 30.778 71.3379 30.4688 71.6309 30.1758C71.7285 30.1758 71.9238 30.1432 72.2168 30.0781C72.5098 29.9805 72.6888 29.9316 72.7539 29.9316C73.4049 29.6387 73.9746 29.1992 74.4629 28.6133C74.9837 27.9948 75.5371 27.5065 76.123 27.1484C76.8066 26.7578 77.5065 26.4323 78.2227 26.1719C78.9388 25.8789 79.6224 25.5208 80.2734 25.0977C80.2734 25.0651 80.3711 25.0163 80.5664 24.9512L80.8594 24.8535C80.9245 24.8535 81.0872 24.8861 81.3477 24.9512C81.6081 24.9837 81.8034 25.0326 81.9336 25.0977C82.0312 25.1953 82.2917 25.3743 82.7148 25.6348C83.1706 25.8626 83.4798 26.0579 83.6426 26.2207C83.903 26.416 84.0983 26.7253 84.2285 27.1484C84.3913 27.5716 84.5378 28.0111 84.668 28.4668C84.7982 28.9225 84.9447 29.3294 85.1074 29.6875C85.3027 30.013 85.5794 30.1758 85.9375 30.1758C86.556 30.1758 87.1094 30.0781 87.5977 29.8828C88.0859 29.6549 88.5417 29.3783 88.9648 29.0527C89.388 28.7272 89.7949 28.3691 90.1855 27.9785C90.5762 27.5879 90.9831 27.1973 91.4062 26.8066C91.4714 26.7741 91.5527 26.7415 91.6504 26.709C91.7155 26.6764 91.7806 26.6602 91.8457 26.6602C91.9434 26.6276 92.0247 26.5951 92.0898 26.5625C92.3503 26.3997 92.7083 26.2207 93.1641 26.0254C93.6198 25.8301 94.0592 25.651 94.4824 25.4883C94.9056 25.293 95.2799 25.1465 95.6055 25.0488C95.931 24.9186 96.11 24.8535 96.1426 24.8535C96.3053 24.8535 96.4518 24.8372 96.582 24.8047C96.9076 24.7396 97.1517 24.707 97.3145 24.707C98.584 24.707 99.8372 24.9186 101.074 25.3418C102.311 25.765 103.483 26.2533 104.59 26.8066C105.436 27.3275 106.234 27.8483 106.982 28.3691C107.764 28.8574 108.35 29.5736 108.74 30.5176C109.326 32.2103 109.684 33.8542 109.814 35.4492C109.977 37.0117 110.059 38.7207 110.059 40.5762V41.748C110.026 41.8132 109.945 41.9271 109.814 42.0898C109.717 42.2526 109.668 42.3665 109.668 42.4316C109.668 42.4967 109.717 42.7246 109.814 43.1152C109.945 43.4733 110.026 43.7174 110.059 43.8477V44.2871V44.7754C110.059 45.0033 110.042 45.3613 110.01 45.8496C109.977 46.3053 109.945 46.7936 109.912 47.3145C109.88 47.8027 109.831 48.2585 109.766 48.6816C109.733 49.1048 109.701 49.3815 109.668 49.5117C109.668 49.9674 109.635 50.5859 109.57 51.3672C109.505 52.1484 109.342 52.7995 109.082 53.3203V56.6895V58.7402C109.082 59.847 109.163 60.9538 109.326 62.0605C109.521 63.1673 109.993 64.0788 110.742 64.7949C110.905 64.9577 111.084 65.0716 111.279 65.1367C111.507 65.2018 111.719 65.2344 111.914 65.2344C112.142 65.2344 112.354 65.2181 112.549 65.1855C112.777 65.153 112.972 65.1367 113.135 65.1367H113.477C113.77 65.2344 114.111 65.3809 114.502 65.5762C114.925 65.7715 115.316 65.9993 115.674 66.2598C116.032 66.5202 116.341 66.8132 116.602 67.1387C116.862 67.4642 116.992 67.806 116.992 68.1641C116.992 68.2617 116.96 68.4082 116.895 68.6035C116.862 68.7663 116.846 68.8802 116.846 68.9453C116.781 69.043 116.65 69.1895 116.455 69.3848C116.292 69.5475 116.097 69.7428 115.869 69.9707C115.641 70.1986 115.43 70.3939 115.234 70.5566C115.072 70.752 114.958 70.8984 114.893 70.9961C114.762 71.0286 114.616 71.0775 114.453 71.1426C114.29 71.2402 114.176 71.2891 114.111 71.2891H103.564C103.141 71.2891 102.474 71.2402 101.562 71.1426C100.651 71.0775 99.7233 70.931 98.7793 70.7031C97.8678 70.4753 97.054 70.1823 96.3379 69.8242C95.6543 69.4661 95.3125 69.0104 95.3125 68.457ZM130.811 49.8535C130.811 51.5462 131.104 53.1413 131.689 54.6387C132.275 56.1035 132.992 57.5846 133.838 59.082C134.066 59.4727 134.245 59.8633 134.375 60.2539C134.505 60.612 134.652 60.9701 134.814 61.3281C134.977 61.6536 135.173 61.9629 135.4 62.2559C135.661 62.5488 136.019 62.8092 136.475 63.0371C136.54 63.0697 136.654 63.1185 136.816 63.1836C137.012 63.2487 137.191 63.3301 137.354 63.4277C137.549 63.5254 137.728 63.6068 137.891 63.6719C138.053 63.737 138.135 63.7858 138.135 63.8184C138.46 64.0137 138.737 64.2415 138.965 64.502C139.193 64.7624 139.421 65.0065 139.648 65.2344C139.909 65.4622 140.169 65.6576 140.43 65.8203C140.723 65.9831 141.064 66.0645 141.455 66.0645C142.432 66.0645 143.343 65.8529 144.189 65.4297C145.068 65.0065 145.882 64.4694 146.631 63.8184C147.412 63.1673 148.145 62.4837 148.828 61.7676C149.512 61.0189 150.146 60.319 150.732 59.668C150.96 58.8542 151.237 58.2194 151.562 57.7637C151.888 57.2754 152.181 56.6732 152.441 55.957C152.799 55.013 153.011 54.1341 153.076 53.3203C153.141 52.474 153.174 51.5788 153.174 50.6348C153.174 48.9746 153.011 47.2819 152.686 45.5566C152.393 43.7988 151.937 42.1061 151.318 40.4785C150.7 38.8184 149.919 37.2559 148.975 35.791C148.031 34.2936 146.924 32.9915 145.654 31.8848C145.492 31.8848 145.166 31.8685 144.678 31.8359C144.189 31.8034 143.864 31.7871 143.701 31.7871C142.171 31.7871 140.706 32.0312 139.307 32.5195C137.907 33.0078 136.768 33.9193 135.889 35.2539C135.726 35.4167 135.514 35.6771 135.254 36.0352C134.993 36.3932 134.831 36.6048 134.766 36.6699C134.701 36.6699 134.521 36.7676 134.229 36.9629C133.968 37.1257 133.838 37.2233 133.838 37.2559C133.708 37.3861 133.561 37.5814 133.398 37.8418C133.236 38.0697 133.122 38.2487 133.057 38.3789C133.057 38.4115 133.04 38.5417 133.008 38.7695C133.008 38.9974 132.992 39.2415 132.959 39.502C132.926 39.7624 132.894 40.0228 132.861 40.2832C132.829 40.5111 132.796 40.6413 132.764 40.6738C132.764 40.804 132.65 41.0482 132.422 41.4062C132.227 41.7318 132.129 41.9271 132.129 41.9922C131.934 42.4154 131.787 42.8711 131.689 43.3594C131.624 43.8477 131.527 44.3197 131.396 44.7754C131.364 45.0033 131.315 45.3451 131.25 45.8008C131.185 46.2565 131.12 46.7122 131.055 47.168C130.99 47.6237 130.924 48.0469 130.859 48.4375C130.827 48.7956 130.811 49.0234 130.811 49.1211V49.8535ZM137.207 70.5566C136.882 70.3613 136.507 70.2148 136.084 70.1172C135.693 70.0195 135.286 69.9382 134.863 69.873C134.473 69.7754 134.082 69.6777 133.691 69.5801C133.333 69.4824 133.024 69.3522 132.764 69.1895C132.633 69.0918 132.406 68.929 132.08 68.7012C131.755 68.4408 131.413 68.1641 131.055 67.8711C130.697 67.5781 130.355 67.3014 130.029 67.041C129.704 66.748 129.476 66.5365 129.346 66.4062C129.15 66.2109 128.857 65.9342 128.467 65.5762C128.076 65.1855 127.686 64.7949 127.295 64.4043C126.904 64.0137 126.546 63.6556 126.221 63.3301C125.928 63.0046 125.765 62.793 125.732 62.6953C125.7 62.6953 125.602 62.5651 125.439 62.3047C125.277 62.0117 125.081 61.6699 124.854 61.2793C124.626 60.8887 124.398 60.498 124.17 60.1074C123.942 59.6842 123.763 59.3424 123.633 59.082C123.47 58.7565 123.258 58.3659 122.998 57.9102C122.77 57.4219 122.542 56.9336 122.314 56.4453C122.119 55.957 121.94 55.485 121.777 55.0293C121.647 54.541 121.582 54.1341 121.582 53.8086V45.3613C121.842 44.6452 122.054 43.8965 122.217 43.1152C122.412 42.334 122.542 41.5202 122.607 40.6738C122.705 40.4785 122.868 40.1367 123.096 39.6484C123.356 39.1602 123.633 38.6556 123.926 38.1348C124.219 37.5814 124.495 37.0768 124.756 36.6211C125.016 36.1328 125.195 35.791 125.293 35.5957C125.781 34.7819 126.318 34.0658 126.904 33.4473C127.523 32.8288 128.174 32.2754 128.857 31.7871C129.541 31.2988 130.257 30.8594 131.006 30.4688C131.787 30.0456 132.585 29.6061 133.398 29.1504C134.245 28.7272 135.189 28.418 136.23 28.2227C137.305 28.0273 138.314 27.7832 139.258 27.4902C139.616 27.3275 139.958 27.1647 140.283 27.002C140.609 26.8066 140.999 26.709 141.455 26.709C141.488 26.709 141.553 26.709 141.65 26.709C141.781 26.709 141.878 26.7415 141.943 26.8066C142.008 26.8066 142.22 26.8717 142.578 27.002C142.969 27.0996 143.213 27.1484 143.311 27.1484H145.654C146.11 27.1484 146.484 27.2461 146.777 27.4414C147.103 27.6042 147.396 27.7832 147.656 27.9785C147.917 28.1738 148.177 28.3691 148.438 28.5645C148.698 28.7272 149.007 28.8086 149.365 28.8086H151.562H152.441C152.474 28.8086 152.555 28.8574 152.686 28.9551C152.848 29.0527 152.995 29.1667 153.125 29.2969C153.288 29.3945 153.434 29.4922 153.564 29.5898C153.695 29.6875 153.76 29.7363 153.76 29.7363C153.825 29.834 153.955 29.9154 154.15 29.9805C154.346 30.0456 154.476 30.1107 154.541 30.1758C154.606 30.1758 154.867 30.2246 155.322 30.3223C155.778 30.3874 156.071 30.4525 156.201 30.5176C156.429 30.6152 156.592 30.7617 156.689 30.957C156.82 31.1198 156.901 31.2988 156.934 31.4941C156.999 31.6895 157.064 31.8848 157.129 32.0801C157.194 32.2428 157.308 32.3893 157.471 32.5195C157.503 32.5521 157.585 32.6172 157.715 32.7148C157.878 32.8125 158.024 32.9264 158.154 33.0566C158.317 33.1543 158.464 33.252 158.594 33.3496C158.724 33.4473 158.805 33.5124 158.838 33.5449C158.903 33.5449 158.968 33.5938 159.033 33.6914C159.131 33.7565 159.18 33.8216 159.18 33.8867C159.375 34.082 159.603 34.3262 159.863 34.6191C160.156 34.9121 160.433 35.2051 160.693 35.498C160.954 35.791 161.165 36.0514 161.328 36.2793C161.523 36.5072 161.621 36.6374 161.621 36.6699C161.654 36.7025 161.67 36.8164 161.67 37.0117C161.702 37.207 161.735 37.4186 161.768 37.6465C161.8 37.8743 161.816 38.0859 161.816 38.2812C161.849 38.4766 161.865 38.5905 161.865 38.623C161.898 38.7207 161.963 38.9323 162.061 39.2578C162.191 39.5508 162.305 39.86 162.402 40.1855C162.533 40.5111 162.646 40.8366 162.744 41.1621C162.842 41.4551 162.923 41.6504 162.988 41.748V51.5625C162.988 51.6602 162.956 51.8555 162.891 52.1484C162.858 52.4089 162.793 52.7181 162.695 53.0762C162.63 53.4342 162.549 53.7923 162.451 54.1504C162.354 54.4759 162.272 54.7363 162.207 54.9316C162.207 54.9967 162.126 55.2246 161.963 55.6152C161.8 56.0059 161.686 56.2337 161.621 56.2988C161.426 56.8522 161.279 57.4382 161.182 58.0566C161.117 58.6751 160.905 59.2122 160.547 59.668C160.547 59.7005 160.449 59.8145 160.254 60.0098C160.156 60.1074 160.059 60.2214 159.961 60.3516C159.44 61.0026 158.984 61.7676 158.594 62.6465C158.236 63.5254 157.764 64.2253 157.178 64.7461C156.559 65.332 155.859 65.8203 155.078 66.2109C154.329 66.569 153.695 67.0085 153.174 67.5293C153.109 67.5293 152.995 67.6107 152.832 67.7734C152.669 67.9362 152.49 68.1152 152.295 68.3105C152.132 68.5059 151.969 68.7012 151.807 68.8965C151.644 69.0592 151.546 69.1569 151.514 69.1895C151.416 69.222 151.221 69.2871 150.928 69.3848C150.667 69.4824 150.374 69.5964 150.049 69.7266C149.723 69.8242 149.398 69.9219 149.072 70.0195C148.779 70.1172 148.551 70.1823 148.389 70.2148C148.324 70.2148 148.096 70.2311 147.705 70.2637C147.347 70.3288 146.924 70.3939 146.436 70.459C145.98 70.5566 145.508 70.638 145.02 70.7031C144.564 70.8008 144.222 70.8659 143.994 70.8984H143.652H143.311C143.083 70.8984 142.676 70.8822 142.09 70.8496C141.504 70.8171 140.885 70.7682 140.234 70.7031C139.583 70.6706 138.965 70.638 138.379 70.6055C137.826 70.5729 137.435 70.5566 137.207 70.5566ZM208.643 70.2148H200.928C200.863 70.1497 200.635 70.0846 200.244 70.0195C199.886 69.9219 199.674 69.873 199.609 69.873C199.382 69.8405 198.991 69.7754 198.438 69.6777C197.884 69.5801 197.298 69.4824 196.68 69.3848C196.061 69.2546 195.475 69.1406 194.922 69.043C194.368 68.9453 193.978 68.8802 193.75 68.8477C193.685 68.7174 193.571 68.5547 193.408 68.3594C193.245 68.1315 193.164 67.9362 193.164 67.7734C193.424 67.2526 193.62 66.7155 193.75 66.1621C193.913 65.6087 193.994 65.0716 193.994 64.5508C193.994 63.9974 193.913 63.4603 193.75 62.9395C193.62 62.4186 193.424 61.8815 193.164 61.3281C193.164 61.3281 193.099 61.2467 192.969 61.084C192.871 60.9212 192.741 60.7422 192.578 60.5469C192.448 60.319 192.301 60.1074 192.139 59.9121C191.976 59.6842 191.846 59.4889 191.748 59.3262C191.683 59.2611 191.504 59.1634 191.211 59.0332C190.951 58.8704 190.788 58.7728 190.723 58.7402C190.592 58.5124 190.479 58.2357 190.381 57.9102C190.283 57.5521 190.153 57.2103 189.99 56.8848C189.86 56.5592 189.681 56.2826 189.453 56.0547C189.258 55.7943 188.981 55.6641 188.623 55.6641C188.005 55.6641 187.5 55.8268 187.109 56.1523C186.719 56.4453 186.393 56.8197 186.133 57.2754C185.905 57.7311 185.693 58.2194 185.498 58.7402C185.335 59.2285 185.156 59.668 184.961 60.0586C184.961 60.1237 184.88 60.2702 184.717 60.498C184.587 60.6934 184.44 60.9049 184.277 61.1328C184.147 61.3281 184.001 61.5234 183.838 61.7188C183.708 61.9141 183.643 62.0443 183.643 62.1094V62.8418C183.643 63.6882 183.74 64.3229 183.936 64.7461C184.163 65.1367 184.44 65.4134 184.766 65.5762C185.124 65.7389 185.482 65.8203 185.84 65.8203C186.23 65.8203 186.589 65.8366 186.914 65.8691C187.272 65.9017 187.549 66.0156 187.744 66.2109C187.972 66.3737 188.086 66.6992 188.086 67.1875C188.086 67.7083 187.907 68.1152 187.549 68.4082C187.223 68.6686 186.816 68.8639 186.328 68.9941C185.872 69.0918 185.384 69.1569 184.863 69.1895C184.375 69.1895 183.968 69.1895 183.643 69.1895C183.285 69.2546 182.666 69.2871 181.787 69.2871C180.941 69.2871 180.029 69.2871 179.053 69.2871C178.076 69.2871 177.165 69.2871 176.318 69.2871C175.505 69.2871 174.919 69.2546 174.561 69.1895C174.495 69.222 174.365 69.2546 174.17 69.2871C174.007 69.3197 173.828 69.3522 173.633 69.3848C173.438 69.3848 173.258 69.401 173.096 69.4336C172.933 69.4336 172.803 69.4336 172.705 69.4336L172.607 69.5312C172.542 69.5964 172.493 69.6289 172.461 69.6289C171.908 69.6289 171.484 69.4173 171.191 68.9941C170.931 68.571 170.801 68.1315 170.801 67.6758C170.801 67.1549 170.882 66.7318 171.045 66.4062C171.24 66.0482 171.484 65.7552 171.777 65.5273C172.07 65.2669 172.396 65.0391 172.754 64.8438C173.112 64.6159 173.47 64.3717 173.828 64.1113C173.861 64.0788 173.958 63.9811 174.121 63.8184C174.284 63.6556 174.447 63.4766 174.609 63.2812C174.805 63.0859 174.984 62.9069 175.146 62.7441C175.309 62.5814 175.423 62.4837 175.488 62.4512C175.521 62.3861 175.651 62.2559 175.879 62.0605C176.139 61.8652 176.4 61.6536 176.66 61.4258C176.953 61.1979 177.214 60.9863 177.441 60.791C177.702 60.5957 177.881 60.4655 177.979 60.4004C178.044 60.2702 178.19 60.0749 178.418 59.8145C178.678 59.554 178.841 59.3913 178.906 59.3262C179.199 58.9681 179.378 58.6914 179.443 58.4961C179.541 58.2682 179.801 57.9753 180.225 57.6172C180.29 57.6172 180.404 57.5684 180.566 57.4707C180.762 57.373 180.957 57.2754 181.152 57.1777C181.348 57.0475 181.51 56.9336 181.641 56.8359C181.803 56.7383 181.901 56.6569 181.934 56.5918C181.999 56.5918 182.096 56.5267 182.227 56.3965C182.357 56.2337 182.487 56.071 182.617 55.9082C182.78 55.7454 182.91 55.5664 183.008 55.3711C183.138 55.1758 183.236 55.0293 183.301 54.9316C183.398 54.8014 183.529 54.6224 183.691 54.3945C183.854 54.1341 184.001 53.8737 184.131 53.6133C184.294 53.3529 184.424 53.125 184.521 52.9297C184.652 52.7344 184.717 52.6042 184.717 52.5391V48.1445C184.554 48.0143 184.277 47.7865 183.887 47.4609C183.529 47.1354 183.154 46.7773 182.764 46.3867C182.373 45.9961 181.999 45.6217 181.641 45.2637C181.283 44.873 181.038 44.5964 180.908 44.4336C180.908 44.4336 180.876 44.3685 180.811 44.2383C180.745 44.0755 180.664 43.929 180.566 43.7988C180.501 43.6361 180.436 43.4896 180.371 43.3594C180.306 43.1966 180.257 43.1152 180.225 43.1152C180.225 43.0827 180.143 43.0013 179.98 42.8711C179.85 42.7409 179.704 42.6107 179.541 42.4805C179.411 42.3177 179.264 42.1712 179.102 42.041C178.971 41.8783 178.906 41.7806 178.906 41.748C178.874 41.7155 178.809 41.6178 178.711 41.4551C178.613 41.2923 178.516 41.1133 178.418 40.918C178.32 40.7227 178.223 40.5436 178.125 40.3809C178.027 40.2181 177.979 40.1042 177.979 40.0391C177.913 39.974 177.767 39.8438 177.539 39.6484C177.344 39.4531 177.116 39.2415 176.855 39.0137C176.628 38.7858 176.4 38.5742 176.172 38.3789C175.977 38.1836 175.863 38.0697 175.83 38.0371C175.83 37.972 175.732 37.793 175.537 37.5C175.342 37.207 175.228 37.0117 175.195 36.9141C174.642 36.4909 173.991 36.1491 173.242 35.8887C172.493 35.6283 171.777 35.3516 171.094 35.0586C170.41 34.7656 169.824 34.3913 169.336 33.9355C168.88 33.4473 168.652 32.7637 168.652 31.8848C168.652 31.3314 168.734 30.9245 168.896 30.6641C169.059 30.4036 169.287 30.2246 169.58 30.127C169.873 30.0293 170.199 29.9805 170.557 29.9805C170.947 29.9805 171.354 29.9642 171.777 29.9316C171.81 29.9316 171.891 29.9154 172.021 29.8828C172.152 29.8503 172.282 29.8177 172.412 29.7852C172.575 29.7201 172.721 29.6712 172.852 29.6387C173.014 29.6061 173.112 29.5898 173.145 29.5898H173.926C174.935 29.5898 175.944 29.6549 176.953 29.7852C177.962 29.8828 178.939 29.9316 179.883 29.9316C180.664 29.9316 181.396 29.8828 182.08 29.7852C182.764 29.6549 183.447 29.5898 184.131 29.5898C184.717 29.5898 185.286 29.6875 185.84 29.8828C186.393 30.0781 186.898 30.3223 187.354 30.6152L187.402 30.7617C187.402 30.7943 187.386 30.8268 187.354 30.8594C187.354 30.8594 187.354 30.8757 187.354 30.9082V30.957C187.354 31.0221 187.321 31.1523 187.256 31.3477C187.191 31.543 187.109 31.7546 187.012 31.9824C186.914 32.1777 186.833 32.373 186.768 32.5684C186.702 32.7637 186.67 32.8939 186.67 32.959V33.4473C186.67 33.5449 186.768 33.8053 186.963 34.2285C187.191 34.6517 187.435 35.1074 187.695 35.5957C187.956 36.084 188.216 36.5397 188.477 36.9629C188.737 37.3535 188.916 37.5977 189.014 37.6953C189.014 37.9883 188.981 38.2975 188.916 38.623C188.883 38.9486 188.867 39.2904 188.867 39.6484C188.867 40.2344 188.981 40.7552 189.209 41.2109C189.437 41.6341 189.909 41.8457 190.625 41.8457C191.113 41.8457 191.602 41.6504 192.09 41.2598C192.611 40.8366 193.066 40.3483 193.457 39.7949C193.88 39.209 194.222 38.6068 194.482 37.9883C194.743 37.3698 194.873 36.849 194.873 36.4258C194.873 35.9049 194.824 35.5469 194.727 35.3516C194.629 35.1237 194.482 34.9772 194.287 34.9121C194.092 34.8145 193.864 34.7493 193.604 34.7168C193.376 34.6517 193.115 34.5215 192.822 34.3262C192.627 34.196 192.415 34.0332 192.188 33.8379C191.96 33.6426 191.732 33.431 191.504 33.2031C191.276 32.9427 191.081 32.6823 190.918 32.4219C190.788 32.1615 190.723 31.8848 190.723 31.5918C190.723 31.2988 190.755 31.1035 190.82 31.0059C190.918 30.8757 191.13 30.7454 191.455 30.6152C192.562 30.0618 193.701 29.7201 194.873 29.5898C196.045 29.4596 197.217 29.3945 198.389 29.3945H200.195C200.781 29.3945 201.351 29.3945 201.904 29.3945C202.458 29.362 203.011 29.3132 203.564 29.248C203.662 29.2155 203.841 29.1667 204.102 29.1016C204.362 29.0365 204.639 28.9714 204.932 28.9062C205.257 28.8086 205.55 28.7272 205.811 28.6621C206.071 28.597 206.25 28.5319 206.348 28.4668H207.129C207.747 28.4668 208.252 28.6621 208.643 29.0527C209.033 29.4108 209.505 29.7038 210.059 29.9316C210.286 29.9967 210.579 30.0618 210.938 30.127C211.328 30.1595 211.605 30.3223 211.768 30.6152C211.833 30.8105 211.914 31.0059 212.012 31.2012C212.077 31.3314 212.126 31.4616 212.158 31.5918L209.717 35.2539C209.717 35.319 209.619 35.4004 209.424 35.498C209.261 35.5632 209.131 35.612 209.033 35.6445C208.936 35.7096 208.691 35.791 208.301 35.8887C207.943 35.9863 207.552 36.084 207.129 36.1816C206.706 36.2793 206.299 36.377 205.908 36.4746C205.55 36.5723 205.322 36.6374 205.225 36.6699C205.192 36.7025 205.078 36.8001 204.883 36.9629C204.688 37.1257 204.476 37.3047 204.248 37.5C204.053 37.6953 203.857 37.8906 203.662 38.0859C203.467 38.2487 203.353 38.3464 203.32 38.3789C203.255 38.4115 203.141 38.4766 202.979 38.5742C202.816 38.6719 202.637 38.7858 202.441 38.916C202.279 39.0137 202.1 39.1113 201.904 39.209C201.742 39.3066 201.644 39.3717 201.611 39.4043C201.546 39.4043 201.432 39.502 201.27 39.6973C201.107 39.86 200.928 40.0391 200.732 40.2344C200.537 40.4297 200.358 40.6087 200.195 40.7715C200.033 40.9342 199.935 41.0319 199.902 41.0645C199.87 41.097 199.772 41.1621 199.609 41.2598C199.447 41.3249 199.268 41.4225 199.072 41.5527C198.877 41.6829 198.698 41.8132 198.535 41.9434C198.372 42.041 198.275 42.1224 198.242 42.1875C198.177 42.1875 198.079 42.2689 197.949 42.4316C197.852 42.5944 197.738 42.7734 197.607 42.9688C197.51 43.1315 197.412 43.3105 197.314 43.5059C197.217 43.6686 197.152 43.7826 197.119 43.8477C196.826 44.3685 196.468 44.8893 196.045 45.4102C195.654 45.8984 195.459 46.5007 195.459 47.2168C195.459 47.8027 195.557 48.3236 195.752 48.7793C195.947 49.2025 196.191 49.6094 196.484 50C196.777 50.3906 197.103 50.765 197.461 51.123C197.819 51.4811 198.161 51.8717 198.486 52.2949C198.519 52.3275 198.584 52.4251 198.682 52.5879C198.812 52.7181 198.942 52.8809 199.072 53.0762C199.202 53.2715 199.316 53.4668 199.414 53.6621C199.512 53.8249 199.577 53.9388 199.609 54.0039C199.642 54.0365 199.707 54.1178 199.805 54.248C199.902 54.3457 200 54.4759 200.098 54.6387C200.195 54.7689 200.277 54.9154 200.342 55.0781C200.439 55.2083 200.505 55.306 200.537 55.3711C200.602 55.4036 200.732 55.5176 200.928 55.7129C201.156 55.9082 201.383 56.1198 201.611 56.3477C201.839 56.5755 202.051 56.7871 202.246 56.9824C202.441 57.1777 202.572 57.3079 202.637 57.373C202.832 57.6009 202.995 57.8613 203.125 58.1543C203.288 58.4147 203.434 58.6751 203.564 58.9355C203.695 59.196 203.841 59.4564 204.004 59.7168C204.167 59.9772 204.378 60.2051 204.639 60.4004C204.704 60.4004 204.867 60.498 205.127 60.6934C205.42 60.8561 205.599 60.9538 205.664 60.9863C205.729 61.0514 205.876 61.1979 206.104 61.4258C206.331 61.6211 206.576 61.849 206.836 62.1094C207.096 62.3372 207.34 62.5488 207.568 62.7441C207.829 62.9069 207.992 63.0046 208.057 63.0371C208.936 63.7207 209.814 64.3392 210.693 64.8926C211.572 65.446 212.484 66.097 213.428 66.8457C213.786 67.1061 213.981 67.2852 214.014 67.3828C214.079 67.4479 214.111 67.6595 214.111 68.0176C214.111 68.3757 213.981 68.7174 213.721 69.043C213.46 69.3359 213.151 69.5964 212.793 69.8242C212.435 70.0521 212.044 70.2311 211.621 70.3613C211.23 70.4915 210.872 70.5566 210.547 70.5566C210.189 70.5566 209.863 70.5404 209.57 70.5078C209.31 70.4753 209.001 70.3776 208.643 70.2148ZM257.764 70.2148H250.049C249.984 70.1497 249.756 70.0846 249.365 70.0195C249.007 69.9219 248.796 69.873 248.73 69.873C248.503 69.8405 248.112 69.7754 247.559 69.6777C247.005 69.5801 246.419 69.4824 245.801 69.3848C245.182 69.2546 244.596 69.1406 244.043 69.043C243.49 68.9453 243.099 68.8802 242.871 68.8477C242.806 68.7174 242.692 68.5547 242.529 68.3594C242.367 68.1315 242.285 67.9362 242.285 67.7734C242.546 67.2526 242.741 66.7155 242.871 66.1621C243.034 65.6087 243.115 65.0716 243.115 64.5508C243.115 63.9974 243.034 63.4603 242.871 62.9395C242.741 62.4186 242.546 61.8815 242.285 61.3281C242.285 61.3281 242.22 61.2467 242.09 61.084C241.992 60.9212 241.862 60.7422 241.699 60.5469C241.569 60.319 241.423 60.1074 241.26 59.9121C241.097 59.6842 240.967 59.4889 240.869 59.3262C240.804 59.2611 240.625 59.1634 240.332 59.0332C240.072 58.8704 239.909 58.7728 239.844 58.7402C239.714 58.5124 239.6 58.2357 239.502 57.9102C239.404 57.5521 239.274 57.2103 239.111 56.8848C238.981 56.5592 238.802 56.2826 238.574 56.0547C238.379 55.7943 238.102 55.6641 237.744 55.6641C237.126 55.6641 236.621 55.8268 236.23 56.1523C235.84 56.4453 235.514 56.8197 235.254 57.2754C235.026 57.7311 234.814 58.2194 234.619 58.7402C234.456 59.2285 234.277 59.668 234.082 60.0586C234.082 60.1237 234.001 60.2702 233.838 60.498C233.708 60.6934 233.561 60.9049 233.398 61.1328C233.268 61.3281 233.122 61.5234 232.959 61.7188C232.829 61.9141 232.764 62.0443 232.764 62.1094V62.8418C232.764 63.6882 232.861 64.3229 233.057 64.7461C233.285 65.1367 233.561 65.4134 233.887 65.5762C234.245 65.7389 234.603 65.8203 234.961 65.8203C235.352 65.8203 235.71 65.8366 236.035 65.8691C236.393 65.9017 236.67 66.0156 236.865 66.2109C237.093 66.3737 237.207 66.6992 237.207 67.1875C237.207 67.7083 237.028 68.1152 236.67 68.4082C236.344 68.6686 235.938 68.8639 235.449 68.9941C234.993 69.0918 234.505 69.1569 233.984 69.1895C233.496 69.1895 233.089 69.1895 232.764 69.1895C232.406 69.2546 231.787 69.2871 230.908 69.2871C230.062 69.2871 229.15 69.2871 228.174 69.2871C227.197 69.2871 226.286 69.2871 225.439 69.2871C224.626 69.2871 224.04 69.2546 223.682 69.1895C223.617 69.222 223.486 69.2546 223.291 69.2871C223.128 69.3197 222.949 69.3522 222.754 69.3848C222.559 69.3848 222.38 69.401 222.217 69.4336C222.054 69.4336 221.924 69.4336 221.826 69.4336L221.729 69.5312C221.663 69.5964 221.615 69.6289 221.582 69.6289C221.029 69.6289 220.605 69.4173 220.312 68.9941C220.052 68.571 219.922 68.1315 219.922 67.6758C219.922 67.1549 220.003 66.7318 220.166 66.4062C220.361 66.0482 220.605 65.7552 220.898 65.5273C221.191 65.2669 221.517 65.0391 221.875 64.8438C222.233 64.6159 222.591 64.3717 222.949 64.1113C222.982 64.0788 223.079 63.9811 223.242 63.8184C223.405 63.6556 223.568 63.4766 223.73 63.2812C223.926 63.0859 224.105 62.9069 224.268 62.7441C224.43 62.5814 224.544 62.4837 224.609 62.4512C224.642 62.3861 224.772 62.2559 225 62.0605C225.26 61.8652 225.521 61.6536 225.781 61.4258C226.074 61.1979 226.335 60.9863 226.562 60.791C226.823 60.5957 227.002 60.4655 227.1 60.4004C227.165 60.2702 227.311 60.0749 227.539 59.8145C227.799 59.554 227.962 59.3913 228.027 59.3262C228.32 58.9681 228.499 58.6914 228.564 58.4961C228.662 58.2682 228.923 57.9753 229.346 57.6172C229.411 57.6172 229.525 57.5684 229.688 57.4707C229.883 57.373 230.078 57.2754 230.273 57.1777C230.469 57.0475 230.632 56.9336 230.762 56.8359C230.924 56.7383 231.022 56.6569 231.055 56.5918C231.12 56.5918 231.217 56.5267 231.348 56.3965C231.478 56.2337 231.608 56.071 231.738 55.9082C231.901 55.7454 232.031 55.5664 232.129 55.3711C232.259 55.1758 232.357 55.0293 232.422 54.9316C232.52 54.8014 232.65 54.6224 232.812 54.3945C232.975 54.1341 233.122 53.8737 233.252 53.6133C233.415 53.3529 233.545 53.125 233.643 52.9297C233.773 52.7344 233.838 52.6042 233.838 52.5391V48.1445C233.675 48.0143 233.398 47.7865 233.008 47.4609C232.65 47.1354 232.275 46.7773 231.885 46.3867C231.494 45.9961 231.12 45.6217 230.762 45.2637C230.404 44.873 230.16 44.5964 230.029 44.4336C230.029 44.4336 229.997 44.3685 229.932 44.2383C229.867 44.0755 229.785 43.929 229.688 43.7988C229.622 43.6361 229.557 43.4896 229.492 43.3594C229.427 43.1966 229.378 43.1152 229.346 43.1152C229.346 43.0827 229.264 43.0013 229.102 42.8711C228.971 42.7409 228.825 42.6107 228.662 42.4805C228.532 42.3177 228.385 42.1712 228.223 42.041C228.092 41.8783 228.027 41.7806 228.027 41.748C227.995 41.7155 227.93 41.6178 227.832 41.4551C227.734 41.2923 227.637 41.1133 227.539 40.918C227.441 40.7227 227.344 40.5436 227.246 40.3809C227.148 40.2181 227.1 40.1042 227.1 40.0391C227.035 39.974 226.888 39.8438 226.66 39.6484C226.465 39.4531 226.237 39.2415 225.977 39.0137C225.749 38.7858 225.521 38.5742 225.293 38.3789C225.098 38.1836 224.984 38.0697 224.951 38.0371C224.951 37.972 224.854 37.793 224.658 37.5C224.463 37.207 224.349 37.0117 224.316 36.9141C223.763 36.4909 223.112 36.1491 222.363 35.8887C221.615 35.6283 220.898 35.3516 220.215 35.0586C219.531 34.7656 218.945 34.3913 218.457 33.9355C218.001 33.4473 217.773 32.7637 217.773 31.8848C217.773 31.3314 217.855 30.9245 218.018 30.6641C218.18 30.4036 218.408 30.2246 218.701 30.127C218.994 30.0293 219.32 29.9805 219.678 29.9805C220.068 29.9805 220.475 29.9642 220.898 29.9316C220.931 29.9316 221.012 29.9154 221.143 29.8828C221.273 29.8503 221.403 29.8177 221.533 29.7852C221.696 29.7201 221.842 29.6712 221.973 29.6387C222.135 29.6061 222.233 29.5898 222.266 29.5898H223.047C224.056 29.5898 225.065 29.6549 226.074 29.7852C227.083 29.8828 228.06 29.9316 229.004 29.9316C229.785 29.9316 230.518 29.8828 231.201 29.7852C231.885 29.6549 232.568 29.5898 233.252 29.5898C233.838 29.5898 234.408 29.6875 234.961 29.8828C235.514 30.0781 236.019 30.3223 236.475 30.6152L236.523 30.7617C236.523 30.7943 236.507 30.8268 236.475 30.8594C236.475 30.8594 236.475 30.8757 236.475 30.9082V30.957C236.475 31.0221 236.442 31.1523 236.377 31.3477C236.312 31.543 236.23 31.7546 236.133 31.9824C236.035 32.1777 235.954 32.373 235.889 32.5684C235.824 32.7637 235.791 32.8939 235.791 32.959V33.4473C235.791 33.5449 235.889 33.8053 236.084 34.2285C236.312 34.6517 236.556 35.1074 236.816 35.5957C237.077 36.084 237.337 36.5397 237.598 36.9629C237.858 37.3535 238.037 37.5977 238.135 37.6953C238.135 37.9883 238.102 38.2975 238.037 38.623C238.005 38.9486 237.988 39.2904 237.988 39.6484C237.988 40.2344 238.102 40.7552 238.33 41.2109C238.558 41.6341 239.03 41.8457 239.746 41.8457C240.234 41.8457 240.723 41.6504 241.211 41.2598C241.732 40.8366 242.188 40.3483 242.578 39.7949C243.001 39.209 243.343 38.6068 243.604 37.9883C243.864 37.3698 243.994 36.849 243.994 36.4258C243.994 35.9049 243.945 35.5469 243.848 35.3516C243.75 35.1237 243.604 34.9772 243.408 34.9121C243.213 34.8145 242.985 34.7493 242.725 34.7168C242.497 34.6517 242.236 34.5215 241.943 34.3262C241.748 34.196 241.536 34.0332 241.309 33.8379C241.081 33.6426 240.853 33.431 240.625 33.2031C240.397 32.9427 240.202 32.6823 240.039 32.4219C239.909 32.1615 239.844 31.8848 239.844 31.5918C239.844 31.2988 239.876 31.1035 239.941 31.0059C240.039 30.8757 240.251 30.7454 240.576 30.6152C241.683 30.0618 242.822 29.7201 243.994 29.5898C245.166 29.4596 246.338 29.3945 247.51 29.3945H249.316C249.902 29.3945 250.472 29.3945 251.025 29.3945C251.579 29.362 252.132 29.3132 252.686 29.248C252.783 29.2155 252.962 29.1667 253.223 29.1016C253.483 29.0365 253.76 28.9714 254.053 28.9062C254.378 28.8086 254.671 28.7272 254.932 28.6621C255.192 28.597 255.371 28.5319 255.469 28.4668H256.25C256.868 28.4668 257.373 28.6621 257.764 29.0527C258.154 29.4108 258.626 29.7038 259.18 29.9316C259.408 29.9967 259.701 30.0618 260.059 30.127C260.449 30.1595 260.726 30.3223 260.889 30.6152C260.954 30.8105 261.035 31.0059 261.133 31.2012C261.198 31.3314 261.247 31.4616 261.279 31.5918L258.838 35.2539C258.838 35.319 258.74 35.4004 258.545 35.498C258.382 35.5632 258.252 35.612 258.154 35.6445C258.057 35.7096 257.812 35.791 257.422 35.8887C257.064 35.9863 256.673 36.084 256.25 36.1816C255.827 36.2793 255.42 36.377 255.029 36.4746C254.671 36.5723 254.443 36.6374 254.346 36.6699C254.313 36.7025 254.199 36.8001 254.004 36.9629C253.809 37.1257 253.597 37.3047 253.369 37.5C253.174 37.6953 252.979 37.8906 252.783 38.0859C252.588 38.2487 252.474 38.3464 252.441 38.3789C252.376 38.4115 252.262 38.4766 252.1 38.5742C251.937 38.6719 251.758 38.7858 251.562 38.916C251.4 39.0137 251.221 39.1113 251.025 39.209C250.863 39.3066 250.765 39.3717 250.732 39.4043C250.667 39.4043 250.553 39.502 250.391 39.6973C250.228 39.86 250.049 40.0391 249.854 40.2344C249.658 40.4297 249.479 40.6087 249.316 40.7715C249.154 40.9342 249.056 41.0319 249.023 41.0645C248.991 41.097 248.893 41.1621 248.73 41.2598C248.568 41.3249 248.389 41.4225 248.193 41.5527C247.998 41.6829 247.819 41.8132 247.656 41.9434C247.493 42.041 247.396 42.1224 247.363 42.1875C247.298 42.1875 247.201 42.2689 247.07 42.4316C246.973 42.5944 246.859 42.7734 246.729 42.9688C246.631 43.1315 246.533 43.3105 246.436 43.5059C246.338 43.6686 246.273 43.7826 246.24 43.8477C245.947 44.3685 245.589 44.8893 245.166 45.4102C244.775 45.8984 244.58 46.5007 244.58 47.2168C244.58 47.8027 244.678 48.3236 244.873 48.7793C245.068 49.2025 245.312 49.6094 245.605 50C245.898 50.3906 246.224 50.765 246.582 51.123C246.94 51.4811 247.282 51.8717 247.607 52.2949C247.64 52.3275 247.705 52.4251 247.803 52.5879C247.933 52.7181 248.063 52.8809 248.193 53.0762C248.324 53.2715 248.438 53.4668 248.535 53.6621C248.633 53.8249 248.698 53.9388 248.73 54.0039C248.763 54.0365 248.828 54.1178 248.926 54.248C249.023 54.3457 249.121 54.4759 249.219 54.6387C249.316 54.7689 249.398 54.9154 249.463 55.0781C249.561 55.2083 249.626 55.306 249.658 55.3711C249.723 55.4036 249.854 55.5176 250.049 55.7129C250.277 55.9082 250.505 56.1198 250.732 56.3477C250.96 56.5755 251.172 56.7871 251.367 56.9824C251.562 57.1777 251.693 57.3079 251.758 57.373C251.953 57.6009 252.116 57.8613 252.246 58.1543C252.409 58.4147 252.555 58.6751 252.686 58.9355C252.816 59.196 252.962 59.4564 253.125 59.7168C253.288 59.9772 253.499 60.2051 253.76 60.4004C253.825 60.4004 253.988 60.498 254.248 60.6934C254.541 60.8561 254.72 60.9538 254.785 60.9863C254.85 61.0514 254.997 61.1979 255.225 61.4258C255.452 61.6211 255.697 61.849 255.957 62.1094C256.217 62.3372 256.462 62.5488 256.689 62.7441C256.95 62.9069 257.113 63.0046 257.178 63.0371C258.057 63.7207 258.936 64.3392 259.814 64.8926C260.693 65.446 261.605 66.097 262.549 66.8457C262.907 67.1061 263.102 67.2852 263.135 67.3828C263.2 67.4479 263.232 67.6595 263.232 68.0176C263.232 68.3757 263.102 68.7174 262.842 69.043C262.581 69.3359 262.272 69.5964 261.914 69.8242C261.556 70.0521 261.165 70.2311 260.742 70.3613C260.352 70.4915 259.993 70.5566 259.668 70.5566C259.31 70.5566 258.984 70.5404 258.691 70.5078C258.431 70.4753 258.122 70.3776 257.764 70.2148Z" fill="white"/>
</svg>
